<svg width="30" height="25" viewBox="0 0 30 25" fill="none" xmlns="http://www.w3.org/2000/svg">
<path d="M0 1.89394C0 0.847949 0.839355 0 1.875 0H28.125C29.1606 0 30 0.847949 30 1.89394C30 2.93993 29.1606 3.78788 28.125 3.78788H1.875C0.839355 3.78788 0 2.93993 0 1.89394Z" fill="#155B0A"/>
<path d="M0 12.5C0 11.454 0.839355 10.6061 1.875 10.6061H28.125C29.1606 10.6061 30 11.454 30 12.5C30 13.546 29.1606 14.3939 28.125 14.3939H1.875C0.839355 14.3939 0 13.546 0 12.5Z" fill="#155B0A"/>
<path d="M1.875 21.2121C0.839355 21.2121 0 22.0601 0 23.1061C0 24.1521 0.839355 25 1.875 25H28.125C29.1606 25 30 24.1521 30 23.1061C30 22.0601 29.1606 21.2121 28.125 21.2121H1.875Z" fill="#155B0A"/>
</svg>
