<svg width="34" height="27" viewBox="0 0 34 27" fill="none" xmlns="http://www.w3.org/2000/svg">
<path d="M8 2.6189H11.2727L13.4655 13.4584C13.5403 13.8311 13.7452 14.1659 14.0444 14.4042C14.3435 14.6425 14.7178 14.769 15.1018 14.7618H23.0545C23.4385 14.769 23.8129 14.6425 24.112 14.4042C24.4112 14.1659 24.6161 13.8311 24.6909 13.4584L26 6.66652H12.0909" stroke="#353F38" stroke-width="2" stroke-linecap="round" stroke-linejoin="round"/>
<path d="M14.5452 19.3811C14.9971 19.3811 15.3634 19.0186 15.3634 18.5715C15.3634 18.1245 14.9971 17.762 14.5452 17.762C14.0934 17.762 13.7271 18.1245 13.7271 18.5715C13.7271 19.0186 14.0934 19.3811 14.5452 19.3811Z" stroke="#353F38" stroke-width="2" stroke-linecap="round" stroke-linejoin="round"/>
<path d="M23.1815 19.3811C23.6333 19.3811 23.9996 19.0186 23.9996 18.5715C23.9996 18.1245 23.6333 17.762 23.1815 17.762C22.7296 17.762 22.3633 18.1245 22.3633 18.5715C22.3633 19.0186 22.7296 19.3811 23.1815 19.3811Z" stroke="#353F38" stroke-width="2" stroke-linecap="round" stroke-linejoin="round"/>
</svg>
